<svg width="200" height="200" viewBox="0 0 200 200" fill="none" xmlns="http://www.w3.org/2000/svg">
<rect width="16.6667" height="16.6667" fill="#D9D9D9"/>
<rect y="16.6667" width="16.6667" height="16.6667" fill="white"/>
<rect x="33.3335" y="33.3334" width="16.6667" height="16.6667" transform="rotate(-180 33.3335 33.3334)" fill="#D9D9D9"/>
<rect x="33.3335" y="16.6667" width="16.6667" height="16.6667" transform="rotate(-180 33.3335 16.6667)" fill="white"/>
<rect x="33.3333" width="16.6667" height="16.6667" fill="#D9D9D9"/>
<rect x="33.3333" y="16.6667" width="16.6667" height="16.6667" fill="white"/>
<rect x="66.6666" y="33.3334" width="16.6667" height="16.6667" transform="rotate(-180 66.6666 33.3334)" fill="#D9D9D9"/>
<rect x="66.6666" y="16.6667" width="16.6667" height="16.6667" transform="rotate(-180 66.6666 16.6667)" fill="white"/>
<rect x="66.6666" width="16.6667" height="16.6667" fill="#D9D9D9"/>
<rect x="66.6666" y="16.6667" width="16.6667" height="16.6667" fill="white"/>
<rect x="100" y="33.3334" width="16.6667" height="16.6667" transform="rotate(-180 100 33.3334)" fill="#D9D9D9"/>
<rect x="100" y="16.6667" width="16.6667" height="16.6667" transform="rotate(-180 100 16.6667)" fill="white"/>
<rect x="100" width="16.6667" height="16.6667" fill="#D9D9D9"/>
<rect x="100" y="16.6667" width="16.6667" height="16.6667" fill="white"/>
<rect x="133.333" y="33.3334" width="16.6667" height="16.6667" transform="rotate(-180 133.333 33.3334)" fill="#D9D9D9"/>
<rect x="133.333" y="16.6667" width="16.6667" height="16.6667" transform="rotate(-180 133.333 16.6667)" fill="white"/>
<rect x="133.333" width="16.6667" height="16.6667" fill="#D9D9D9"/>
<rect x="133.333" y="16.6667" width="16.6667" height="16.6667" fill="white"/>
<rect x="166.667" y="33.3334" width="16.6667" height="16.6667" transform="rotate(-180 166.667 33.3334)" fill="#D9D9D9"/>
<rect x="166.667" y="16.6667" width="16.6667" height="16.6667" transform="rotate(-180 166.667 16.6667)" fill="white"/>
<rect x="166.667" width="16.6667" height="16.6667" fill="#D9D9D9"/>
<rect x="166.667" y="16.6667" width="16.6667" height="16.6667" fill="white"/>
<rect x="200" y="33.3334" width="16.6667" height="16.6667" transform="rotate(-180 200 33.3334)" fill="#D9D9D9"/>
<rect x="200" y="16.6667" width="16.6667" height="16.6667" transform="rotate(-180 200 16.6667)" fill="white"/>
<rect y="33.3334" width="16.6667" height="16.6667" fill="#D9D9D9"/>
<rect y="50" width="16.6667" height="16.6667" fill="white"/>
<rect y="66.6666" width="16.6667" height="16.6667" fill="#D9D9D9"/>
<rect y="83.3334" width="16.6667" height="16.6667" fill="white"/>
<rect y="100" width="16.6667" height="16.6667" fill="#D9D9D9"/>
<rect y="116.667" width="16.6667" height="16.6667" fill="white"/>
<rect y="133.333" width="16.6667" height="16.6667" fill="#D9D9D9"/>
<rect y="150" width="16.6667" height="16.6667" fill="white"/>
<rect x="33.3335" y="166.667" width="16.6667" height="16.6667" transform="rotate(-180 33.3335 166.667)" fill="#D9D9D9"/>
<rect x="33.3335" y="150" width="16.6667" height="16.6667" transform="rotate(-180 33.3335 150)" fill="white"/>
<rect x="33.3335" y="133.333" width="16.6667" height="16.6667" transform="rotate(-180 33.3335 133.333)" fill="#D9D9D9"/>
<rect x="33.3335" y="116.667" width="16.6667" height="16.6667" transform="rotate(-180 33.3335 116.667)" fill="white"/>
<rect x="33.3335" y="100" width="16.6667" height="16.6667" transform="rotate(-180 33.3335 100)" fill="#D9D9D9"/>
<rect x="33.3335" y="83.3334" width="16.6667" height="16.6667" transform="rotate(-180 33.3335 83.3334)" fill="white"/>
<rect x="33.3335" y="66.6666" width="16.6667" height="16.6667" transform="rotate(-180 33.3335 66.6666)" fill="#D9D9D9"/>
<rect x="33.3335" y="50" width="16.6667" height="16.6667" transform="rotate(-180 33.3335 50)" fill="white"/>
<rect x="33.3335" y="33.3334" width="16.6667" height="16.6667" fill="#D9D9D9"/>
<rect x="33.3333" y="50" width="16.6667" height="16.6667" fill="white"/>
<rect x="33.3333" y="66.6666" width="16.6667" height="16.6667" fill="#D9D9D9"/>
<rect x="33.3333" y="83.3334" width="16.6667" height="16.6667" fill="white"/>
<rect x="33.3333" y="100" width="16.6667" height="16.6667" fill="#D9D9D9"/>
<rect x="33.3333" y="116.667" width="16.6667" height="16.6667" fill="white"/>
<rect x="33.3333" y="133.333" width="16.6667" height="16.6667" fill="#D9D9D9"/>
<rect x="33.3333" y="150" width="16.6667" height="16.6667" fill="white"/>
<rect x="66.6666" y="166.667" width="16.6667" height="16.6667" transform="rotate(-180 66.6666 166.667)" fill="#D9D9D9"/>
<rect x="66.6666" y="150" width="16.6667" height="16.6667" transform="rotate(-180 66.6666 150)" fill="white"/>
<rect x="66.6666" y="133.333" width="16.6667" height="16.6667" transform="rotate(-180 66.6666 133.333)" fill="#D9D9D9"/>
<rect x="66.6666" y="116.667" width="16.6667" height="16.6667" transform="rotate(-180 66.6666 116.667)" fill="white"/>
<rect x="66.6666" y="100" width="16.6667" height="16.6667" transform="rotate(-180 66.6666 100)" fill="#D9D9D9"/>
<rect x="66.6666" y="83.3334" width="16.6667" height="16.6667" transform="rotate(-180 66.6666 83.3334)" fill="white"/>
<rect x="66.6666" y="66.6666" width="16.6667" height="16.6667" transform="rotate(-180 66.6666 66.6666)" fill="#D9D9D9"/>
<rect x="66.6666" y="50" width="16.6667" height="16.6667" transform="rotate(-180 66.6666 50)" fill="white"/>
<rect x="66.6666" y="33.3334" width="16.6667" height="16.6667" fill="#D9D9D9"/>
<rect x="66.6666" y="50" width="16.6667" height="16.6667" fill="white"/>
<rect x="66.6666" y="66.6666" width="16.6667" height="16.6667" fill="#D9D9D9"/>
<rect x="66.6666" y="83.3334" width="16.6667" height="16.6667" fill="white"/>
<rect x="66.6666" y="100" width="16.6667" height="16.6667" fill="#D9D9D9"/>
<rect x="66.6666" y="116.667" width="16.6667" height="16.6667" fill="white"/>
<rect x="66.6666" y="133.333" width="16.6667" height="16.6667" fill="#D9D9D9"/>
<rect x="66.6666" y="150" width="16.6667" height="16.6667" fill="white"/>
<rect x="100" y="166.667" width="16.6667" height="16.6667" transform="rotate(-180 100 166.667)" fill="#D9D9D9"/>
<rect x="100" y="150" width="16.6667" height="16.6667" transform="rotate(-180 100 150)" fill="white"/>
<rect x="100" y="133.333" width="16.6667" height="16.6667" transform="rotate(-180 100 133.333)" fill="#D9D9D9"/>
<rect x="100" y="116.667" width="16.6667" height="16.6667" transform="rotate(-180 100 116.667)" fill="white"/>
<rect x="100" y="100" width="16.6667" height="16.6667" transform="rotate(-180 100 100)" fill="#D9D9D9"/>
<rect x="100" y="83.3334" width="16.6667" height="16.6667" transform="rotate(-180 100 83.3334)" fill="white"/>
<rect x="100" y="66.6666" width="16.6667" height="16.6667" transform="rotate(-180 100 66.6666)" fill="#D9D9D9"/>
<rect x="100" y="50" width="16.6667" height="16.6667" transform="rotate(-180 100 50)" fill="white"/>
<rect x="100" y="33.3334" width="16.6667" height="16.6667" fill="#D9D9D9"/>
<rect x="100" y="50" width="16.6667" height="16.6667" fill="white"/>
<rect x="100" y="66.6666" width="16.6667" height="16.6667" fill="#D9D9D9"/>
<rect x="100" y="83.3334" width="16.6667" height="16.6667" fill="white"/>
<rect x="100" y="100" width="16.6667" height="16.6667" fill="#D9D9D9"/>
<rect x="100" y="116.667" width="16.6667" height="16.6667" fill="white"/>
<rect x="100" y="133.333" width="16.6667" height="16.6667" fill="#D9D9D9"/>
<rect x="100" y="150" width="16.6667" height="16.6667" fill="white"/>
<rect x="133.333" y="166.667" width="16.6667" height="16.6667" transform="rotate(-180 133.333 166.667)" fill="#D9D9D9"/>
<rect x="133.333" y="150" width="16.6667" height="16.6667" transform="rotate(-180 133.333 150)" fill="white"/>
<rect x="133.333" y="133.333" width="16.6667" height="16.6667" transform="rotate(-180 133.333 133.333)" fill="#D9D9D9"/>
<rect x="133.333" y="116.667" width="16.6667" height="16.6667" transform="rotate(-180 133.333 116.667)" fill="white"/>
<rect x="133.333" y="100" width="16.6667" height="16.6667" transform="rotate(-180 133.333 100)" fill="#D9D9D9"/>
<rect x="133.333" y="83.3334" width="16.6667" height="16.6667" transform="rotate(-180 133.333 83.3334)" fill="white"/>
<rect x="133.333" y="66.6666" width="16.6667" height="16.6667" transform="rotate(-180 133.333 66.6666)" fill="#D9D9D9"/>
<rect x="133.333" y="50" width="16.6667" height="16.6667" transform="rotate(-180 133.333 50)" fill="white"/>
<rect x="133.333" y="33.3334" width="16.6667" height="16.6667" fill="#D9D9D9"/>
<rect x="133.333" y="50" width="16.6667" height="16.6667" fill="white"/>
<rect x="133.333" y="66.6666" width="16.6667" height="16.6667" fill="#D9D9D9"/>
<rect x="133.333" y="83.3334" width="16.6667" height="16.6667" fill="white"/>
<rect x="133.333" y="100" width="16.6667" height="16.6667" fill="#D9D9D9"/>
<rect x="133.333" y="116.667" width="16.6667" height="16.6667" fill="white"/>
<rect x="133.333" y="133.333" width="16.6667" height="16.6667" fill="#D9D9D9"/>
<rect x="133.333" y="150" width="16.6667" height="16.6667" fill="white"/>
<rect x="166.667" y="166.667" width="16.6667" height="16.6667" transform="rotate(-180 166.667 166.667)" fill="#D9D9D9"/>
<rect x="166.667" y="150" width="16.6667" height="16.6667" transform="rotate(-180 166.667 150)" fill="white"/>
<rect x="166.667" y="133.333" width="16.6667" height="16.6667" transform="rotate(-180 166.667 133.333)" fill="#D9D9D9"/>
<rect x="166.667" y="116.667" width="16.6667" height="16.6667" transform="rotate(-180 166.667 116.667)" fill="white"/>
<rect x="166.667" y="100" width="16.6667" height="16.6667" transform="rotate(-180 166.667 100)" fill="#D9D9D9"/>
<rect x="166.667" y="83.3334" width="16.6667" height="16.6667" transform="rotate(-180 166.667 83.3334)" fill="white"/>
<rect x="166.667" y="66.6666" width="16.6667" height="16.6667" transform="rotate(-180 166.667 66.6666)" fill="#D9D9D9"/>
<rect x="166.667" y="50" width="16.6667" height="16.6667" transform="rotate(-180 166.667 50)" fill="white"/>
<rect x="166.667" y="33.3334" width="16.6667" height="16.6667" fill="#D9D9D9"/>
<rect x="166.667" y="50" width="16.6667" height="16.6667" fill="white"/>
<rect x="166.667" y="66.6666" width="16.6667" height="16.6667" fill="#D9D9D9"/>
<rect x="166.667" y="83.3334" width="16.6667" height="16.6667" fill="white"/>
<rect x="166.667" y="100" width="16.6667" height="16.6667" fill="#D9D9D9"/>
<rect x="166.667" y="116.667" width="16.6667" height="16.6667" fill="white"/>
<rect x="166.667" y="133.333" width="16.6667" height="16.6667" fill="#D9D9D9"/>
<rect x="166.667" y="150" width="16.6667" height="16.6667" fill="white"/>
<rect x="200" y="166.667" width="16.6667" height="16.6667" transform="rotate(-180 200 166.667)" fill="#D9D9D9"/>
<rect x="200" y="150" width="16.6667" height="16.6667" transform="rotate(-180 200 150)" fill="white"/>
<rect x="200" y="133.333" width="16.6667" height="16.6667" transform="rotate(-180 200 133.333)" fill="#D9D9D9"/>
<rect x="200" y="116.667" width="16.6667" height="16.6667" transform="rotate(-180 200 116.667)" fill="white"/>
<rect x="200" y="100" width="16.6667" height="16.6667" transform="rotate(-180 200 100)" fill="#D9D9D9"/>
<rect x="200" y="83.3334" width="16.6667" height="16.6667" transform="rotate(-180 200 83.3334)" fill="white"/>
<rect x="200" y="66.6666" width="16.6667" height="16.6667" transform="rotate(-180 200 66.6666)" fill="#D9D9D9"/>
<rect x="200" y="50" width="16.6667" height="16.6667" transform="rotate(-180 200 50)" fill="white"/>
<rect y="166.667" width="16.6667" height="16.6667" fill="#D9D9D9"/>
<rect y="183.333" width="16.6667" height="16.6667" fill="white"/>
<rect x="33.3335" y="200" width="16.6667" height="16.6667" transform="rotate(-180 33.3335 200)" fill="#D9D9D9"/>
<rect x="33.3335" y="183.333" width="16.6667" height="16.6667" transform="rotate(-180 33.3335 183.333)" fill="white"/>
<rect x="33.3335" y="166.667" width="16.6667" height="16.6667" fill="#D9D9D9"/>
<rect x="33.3333" y="183.333" width="16.6667" height="16.6667" fill="white"/>
<rect x="66.6666" y="200" width="16.6667" height="16.6667" transform="rotate(-180 66.6666 200)" fill="#D9D9D9"/>
<rect x="66.6666" y="183.333" width="16.6667" height="16.6667" transform="rotate(-180 66.6666 183.333)" fill="white"/>
<rect x="66.6666" y="166.667" width="16.6667" height="16.6667" fill="#D9D9D9"/>
<rect x="66.6666" y="183.333" width="16.6667" height="16.6667" fill="white"/>
<rect x="100" y="200" width="16.6667" height="16.6667" transform="rotate(-180 100 200)" fill="#D9D9D9"/>
<rect x="100" y="183.333" width="16.6667" height="16.6667" transform="rotate(-180 100 183.333)" fill="white"/>
<rect x="100" y="166.667" width="16.6667" height="16.6667" fill="#D9D9D9"/>
<rect x="100" y="183.333" width="16.6667" height="16.6667" fill="white"/>
<rect x="133.333" y="200" width="16.6667" height="16.6667" transform="rotate(-180 133.333 200)" fill="#D9D9D9"/>
<rect x="133.333" y="183.333" width="16.6667" height="16.6667" transform="rotate(-180 133.333 183.333)" fill="white"/>
<rect x="133.333" y="166.667" width="16.6667" height="16.6667" fill="#D9D9D9"/>
<rect x="133.333" y="183.333" width="16.6667" height="16.6667" fill="white"/>
<rect x="166.667" y="200" width="16.6667" height="16.6667" transform="rotate(-180 166.667 200)" fill="#D9D9D9"/>
<rect x="166.667" y="183.333" width="16.6667" height="16.6667" transform="rotate(-180 166.667 183.333)" fill="white"/>
<rect x="166.667" y="166.667" width="16.6667" height="16.6667" fill="#D9D9D9"/>
<rect x="166.667" y="183.333" width="16.6667" height="16.6667" fill="white"/>
<rect x="200" y="200" width="16.6667" height="16.6667" transform="rotate(-180 200 200)" fill="#D9D9D9"/>
<rect x="200" y="183.333" width="16.6667" height="16.6667" transform="rotate(-180 200 183.333)" fill="white"/>
<rect x="68" y="4" width="64" height="64" fill="#31E03C"/>
<path d="M132 4H196V68H132V4Z" fill="#E03C31"/>
<rect x="4" y="4" width="64" height="64" fill="#007AA5"/>
<rect width="64" height="64" transform="matrix(-1 0 0 1 132 68)" fill="#31E03C" fill-opacity="0.75"/>
<path d="M68 68H4V132H68V68Z" fill="#E03C31" fill-opacity="0.75"/>
<rect width="64" height="64" transform="matrix(-1 0 0 1 196 68)" fill="#007AA5" fill-opacity="0.75"/>
<rect width="64" height="64" transform="matrix(1 0 0 -1 68 196)" fill="#31E03C" fill-opacity="0.5"/>
<path d="M132 196H196V132H132V196Z" fill="#E03C31" fill-opacity="0.5"/>
<rect width="64" height="64" transform="matrix(1 0 0 -1 4 196)" fill="#007AA5" fill-opacity="0.5"/>
</svg>
